<svg width="270" height="38" viewBox="0 0 270 38" fill="none" xmlns="http://www.w3.org/2000/svg">
<path d="M0.587891 0.548828H16.3301C18.9876 0.548828 21.4167 0.955078 23.6172 1.76758C25.8177 2.56315 27.722 3.73112 29.3301 5.27148C30.9551 6.81185 32.2161 8.78385 33.1133 11.1875C34.0273 13.5742 34.4844 16.291 34.4844 19.3379C34.4844 22.9941 33.7142 26.2441 32.1738 29.0879C30.6335 31.9147 28.4837 34.1068 25.7246 35.6641C22.9655 37.2214 19.8171 38 16.2793 38H0.587891V36.959L5.25977 35.1309V3.41797L0.587891 1.58984V0.548828ZM15.9746 3.26562H10.2109V35.3086H16.127C17.8366 35.3086 19.4616 34.9785 21.002 34.3184C22.5592 33.6582 23.9388 32.7018 25.1406 31.4492C26.3594 30.1966 27.3242 28.5716 28.0352 26.5742C28.763 24.5768 29.127 22.334 29.127 19.8457C29.127 14.5137 27.9844 10.4173 25.6992 7.55664C23.4141 4.69596 20.1725 3.26562 15.9746 3.26562ZM49.5664 3.41797V35.1309L54.2383 36.959V38H40.1973V36.959L44.6152 35.1309V3.41797L39.9434 1.58984V0.548828H53.9844V1.58984L49.5664 3.41797ZM86.9922 38H59.9512V36.959L64.623 35.1309V3.41797L59.9512 1.58984V0.548828H74.2461V1.58984L69.8281 3.41797V35.0293H82.7266L85.9512 27.5391H86.9922V38ZM100.145 0.548828V1.58984L96.8184 2.91016L105.553 20.1758H105.781L115.074 2.96094L111.646 1.58984V0.548828H122.311V1.58984L118.4 3.41797L107.33 23.6543V35.1309L112.002 36.959V38H98.2402V36.959L102.658 35.1309V23.7051L91.6895 3.41797L87.5254 1.58984V0.548828H100.145ZM145.873 25.6855H132.467L128.76 35.6133L133.025 36.959V38H120.914V36.959L125.332 35.1309L138.586 0.548828H140.922L154.506 35.1309L158.67 36.959V38H145.67V36.959L149.783 35.6133L145.873 25.6855ZM138.967 8.31836L133.508 22.9688H144.832L139.17 8.31836H138.967ZM185.127 38L177.129 22.3086C176.638 22.3763 176.13 22.4271 175.605 22.4609C175.098 22.4948 174.573 22.5117 174.031 22.5117C173.405 22.5117 172.762 22.4863 172.102 22.4355C171.458 22.3848 170.79 22.3171 170.096 22.2324V35.1309L175.834 36.959V38H160.752V36.959L165.424 35.1309V3.41797L160.752 1.58984V0.548828H175.047C177.247 0.548828 179.202 0.802734 180.912 1.31055C182.622 1.80143 184.061 2.50391 185.229 3.41797C186.413 4.33203 187.311 5.43229 187.92 6.71875C188.529 7.98828 188.834 9.40169 188.834 10.959C188.834 13.2441 188.242 15.2754 187.057 17.0527C185.889 18.8132 184.154 20.1589 181.852 21.0898L189.24 35.5117L192.973 36.959V38H185.127ZM175.783 3.21484H170.096V19.541C170.79 19.6257 171.441 19.6934 172.051 19.7441C172.677 19.778 173.286 19.7949 173.879 19.7949C180.413 19.7949 183.68 16.985 183.68 11.3652C183.68 8.63997 183.003 6.60026 181.648 5.24609C180.294 3.89193 178.339 3.21484 175.783 3.21484ZM219.404 25.6855H205.998L202.291 35.6133L206.557 36.959V38H194.445V36.959L198.863 35.1309L212.117 0.548828H214.453L228.037 35.1309L232.201 36.959V38H219.201V36.959L223.314 35.6133L219.404 25.6855ZM212.498 8.31836L207.039 22.9688H218.363L212.701 8.31836H212.498ZM256.271 25.6855H242.865L239.158 35.6133L243.424 36.959V38H231.312V36.959L235.73 35.1309L248.984 0.548828H251.32L264.904 35.1309L269.068 36.959V38H256.068V36.959L260.182 35.6133L256.271 25.6855ZM249.365 8.31836L243.906 22.9688H255.23L249.568 8.31836H249.365Z" fill="#1E272E"/>
</svg>
